<svg xmlns="http://www.w3.org/2000/svg" version="1.1" xmlns:xlink="http://www.w3.org/1999/xlink" xmlns:svgjs="http://svgjs.dev/svgjs" width="2000" height="2185" viewBox="0 0 2000 2185"><g transform="matrix(1,0,0,1,1.0774445840240787,0.8846153846152447)"><svg viewBox="0 0 226 247" data-background-color="#b19dd0" preserveAspectRatio="xMidYMid meet" height="2185" width="2000" xmlns="http://www.w3.org/2000/svg" xmlns:xlink="http://www.w3.org/1999/xlink"><g id="tight-bounds" transform="matrix(1,0,0,1,-0.12175123799471521,-0.09999999999999432)"><svg viewBox="0 0 226.2435024759894 247.2" height="247.2" width="226.2435024759894"><g><svg viewBox="0 0 395.52 432.15625169335556" height="247.2" width="226.2435024759894"><g transform="matrix(1,0,0,1,0,262.41094712502917)"><svg viewBox="0 0 395.52 169.7453045683264" height="169.7453045683264" width="395.52"><g id="textblocktransform"><svg viewBox="0 0 395.52 169.7453045683264" height="169.7453045683264" width="395.52" id="textblock"><g><svg viewBox="0 0 395.52 91.552506244796" height="91.552506244796" width="395.52"><g transform="matrix(1,0,0,1,0,0)"><svg width="395.52" viewBox="1.5 -37 180.14 41.7" height="91.552506244796" data-palette-color="#7a26c1"><path d="M65.85-29.3L65.85-29.3Q68.95-29.3 68.95-30.8L68.95-30.8Q68.95-31.55 69.48-31.55 70-31.55 70-30.33 70-29.1 68.6-28.45 67.2-27.8 66.13-27.8 65.05-27.8 64.35-27.9L64.35-27.9Q57-28.85 51.75-31.1L51.75-31.1Q48.2-25.5 45.4-16.2L45.4-16.2Q44.35-12.85 42.43-8.95 40.5-5.05 38.27-2.53 36.05 0 33.15 1.6L33.15 1.6Q27.45 4.7 19.7 4.7L19.7 4.7Q13.4 4.7 7.9 1.6L7.9 1.6Q2.5-1.45 1.6-7.8L1.6-7.8Q1.5-8.65 1.5-10.33 1.5-12 2.48-15.1 3.45-18.2 6.15-19.8L6.15-19.8Q7.25-20.45 7.8-20.45L7.8-20.45Q8.7-20.45 8.6-19.6L8.6-19.6Q8.4-19.35 7.58-18.78 6.75-18.2 6-17.57 5.25-16.95 4.5-15.65L4.5-15.65Q3.2-13.45 3.2-10.7L3.2-10.7Q3.2-4.4 7.5-1L7.5-1Q9.8 0.9 12.65 1.9 15.5 2.9 18.35 2.9L18.35 2.9Q18.45 2.9 18.6 2.9L18.6 2.9Q28.95 2.65 35.6-4.6L35.6-4.6Q39.8-9.15 47.1-25.15L47.1-25.15Q49.6-30.65 50.3-31.6L50.3-31.6Q41.45-34.4 34.4-34.4 27.35-34.4 22.95-30.15L22.95-30.15Q19.4-26.75 19.4-23.05L19.4-23.05Q19.4-19 22.95-17.9L22.95-17.9Q24.2-17.55 25.23-17.55 26.25-17.55 27.58-17.93 28.9-18.3 30.13-19.48 31.35-20.65 31.98-21.8 32.6-22.95 32.5-23.55L32.5-23.55 32.5-23.65Q32.9-24 33.2-23.88 33.5-23.75 33.5-23.25L33.5-23.25Q33-19.35 29.55-17.4L29.55-17.4Q27.45-16.15 25.65-16.15 23.85-16.15 22.45-16.65L22.45-16.65Q18.35-18.1 17.25-22.2L17.25-22.2Q16.9-23.5 16.9-24.75L16.9-24.75Q16.9-27.75 18.75-30.6L18.75-30.6Q22.05-35.7 29.1-36.75L29.1-36.75Q30.7-37 32.15-37 33.6-37 35.52-36.85 37.45-36.7 40.63-35.85 43.8-35 47.13-33.88 50.45-32.75 51.1-32.55L51.1-32.55Q53.55-35.55 54.75-35.6L54.75-35.6Q55-35.7 55.43-35.7 55.85-35.7 56.1-35 56.35-34.3 55.75-34.1L55.75-34.1Q55.5-34.05 55.1-34.15L55.1-34.15Q54.8-34.35 53.88-33.52 52.95-32.7 52.5-32.15L52.5-32.15Q57.2-30.65 60.75-29.98 64.3-29.3 65.85-29.3ZM63.95-13.55Q63.05-12.65 61.4-9.47 59.75-6.3 59.42-4.73 59.1-3.15 59.1-2.18 59.1-1.2 59.85-1.2L59.85-1.2Q60.8-1.2 62.2-2.95L62.2-2.95Q64.25-5.5 66.25-9.6L66.25-9.6Q66.45-10.05 66.7-10.1L66.7-10.1Q67.1-10.25 67.1-9.8L67.1-9.8Q67.1-9.55 66.95-9.2L66.95-9.2Q62.35 0.1 59.2 0.1L59.2 0.1Q57.75 0.1 56.85-1.3L56.85-1.3Q56.4-2.05 56.4-3.3 56.4-4.55 56.9-6.35L56.9-6.35Q52.9 0.1 50 0.1L50 0.1Q49.2 0.1 48.55-0.4L48.55-0.4Q47.05-1.45 47.05-4L47.05-4Q47.05-8.9 51.3-13.95L51.3-13.95Q53.7-16.75 57.2-17.6L57.2-17.6Q58.15-17.85 59-17.85L59-17.85Q61.3-17.85 62.9-16.25L62.9-16.25Q63.4-15.7 63.2-15.2 63-14.7 62.35-14.8L62.35-14.8Q61.8-16.6 59.95-16.6L59.95-16.6Q57.8-16.6 54.65-13.2L54.65-13.2Q52.85-11.2 51.3-8.5L51.3-8.5Q49.35-5.25 49.35-3.3 49.35-1.35 50.6-1.35L50.6-1.35Q53.6-1.35 58.45-10.55L58.45-10.55Q59.4-12.4 60.05-13.08 60.7-13.75 61.7-13.75L61.7-13.75Q61.9-13.75 62.72-13.6 63.55-13.45 63.95-13.55L63.95-13.55ZM81.35-16.4L81.35-16.4Q75.2-5.6 75.2-2.3L75.2-2.3Q75.2-1 76.15-1L76.15-1Q78.7-1 83-9.65L83-9.65Q83.3-10.35 83.6-10.2 83.9-10.05 83.9-9.8 83.9-9.55 83.7-9.2L83.7-9.2Q81.05-3.85 79.22-1.83 77.4 0.2 75.57 0.2 73.75 0.2 72.8-1.2L72.8-1.2Q72.3-1.85 72.3-2.98 72.3-4.1 72.8-5.7 73.3-7.3 75.55-10.9L75.55-10.9Q76.1-11.8 76.1-12.33 76.1-12.85 75.25-12.85 74.4-12.85 72-10.6L72-10.6Q68.4-7.3 65.05-0.7L65.05-0.7Q64.75-0.2 64.37-0.08 64 0.05 62.9 0.1 61.8 0.15 61.45 0.35L61.45 0.35Q62.25-1.25 64.6-6.2L64.6-6.2Q68.8-14.95 70.1-16.2L70.1-16.2Q70.7-16.8 71.75-16.8L71.75-16.8Q71.95-16.8 72.77-16.65 73.6-16.5 74-16.6L74-16.6Q72.15-15.6 67.95-7.2L67.95-7.2Q70.3-10.1 72.22-11.83 74.15-13.55 76.85-15.03 79.55-16.5 80.8-16.5L80.8-16.5Q81.1-16.5 81.35-16.4ZM145.99-29.3L145.99-29.3Q149.09-29.3 149.09-30.8L149.09-30.8Q149.09-31.55 149.62-31.55 150.14-31.55 150.14-30.33 150.14-29.1 148.74-28.45 147.34-27.8 146.27-27.8 145.19-27.8 144.49-27.9L144.49-27.9Q137.14-28.85 131.89-31.1L131.89-31.1Q128.34-25.5 125.54-16.2L125.54-16.2Q124.49-12.85 122.57-8.95 120.64-5.05 118.42-2.53 116.19 0 113.29 1.6L113.29 1.6Q107.59 4.7 99.84 4.7L99.84 4.7Q93.54 4.7 88.04 1.6L88.04 1.6Q82.64-1.45 81.74-7.8L81.74-7.8Q81.64-8.65 81.64-10.33 81.64-12 82.62-15.1 83.59-18.2 86.29-19.8L86.29-19.8Q87.39-20.45 87.94-20.45L87.94-20.45Q88.84-20.45 88.74-19.6L88.74-19.6Q88.54-19.35 87.72-18.78 86.89-18.2 86.14-17.57 85.39-16.95 84.64-15.65L84.64-15.65Q83.34-13.45 83.34-10.7L83.34-10.7Q83.34-4.4 87.64-1L87.64-1Q89.94 0.9 92.79 1.9 95.64 2.9 98.49 2.9L98.49 2.9Q98.59 2.9 98.74 2.9L98.74 2.9Q109.09 2.65 115.74-4.6L115.74-4.6Q119.94-9.15 127.24-25.15L127.24-25.15Q129.74-30.65 130.44-31.6L130.44-31.6Q121.59-34.4 114.54-34.4 107.49-34.4 103.09-30.15L103.09-30.15Q99.54-26.75 99.54-23.05L99.54-23.05Q99.54-19 103.09-17.9L103.09-17.9Q104.34-17.55 105.37-17.55 106.39-17.55 107.72-17.93 109.04-18.3 110.27-19.48 111.49-20.65 112.12-21.8 112.74-22.95 112.64-23.55L112.64-23.55 112.64-23.65Q113.04-24 113.34-23.88 113.64-23.75 113.64-23.25L113.64-23.25Q113.14-19.35 109.69-17.4L109.69-17.4Q107.59-16.15 105.79-16.15 103.99-16.15 102.59-16.65L102.59-16.65Q98.49-18.1 97.39-22.2L97.39-22.2Q97.04-23.5 97.04-24.75L97.04-24.75Q97.04-27.75 98.89-30.6L98.89-30.6Q102.19-35.7 109.24-36.75L109.24-36.75Q110.84-37 112.29-37 113.74-37 115.67-36.85 117.59-36.7 120.77-35.85 123.94-35 127.27-33.88 130.59-32.75 131.24-32.55L131.24-32.55Q133.69-35.55 134.89-35.6L134.89-35.6Q135.14-35.7 135.57-35.7 135.99-35.7 136.24-35 136.49-34.3 135.89-34.1L135.89-34.1Q135.64-34.05 135.24-34.15L135.24-34.15Q134.94-34.35 134.02-33.52 133.09-32.7 132.64-32.15L132.64-32.15Q137.34-30.65 140.89-29.98 144.44-29.3 145.99-29.3ZM137.99-17.5L137.99-17.5Q141.64-17.5 141.64-12.9L141.64-12.9Q141.64-10.8 140.54-8.4L140.54-8.4Q139.14-5.15 136.34-2.5L136.34-2.5Q136.99-1.25 138.69-1.25L138.69-1.25Q140.04-1.25 141.24-2.6L141.24-2.6Q142.74-4.15 143.39-5.33 144.04-6.5 144.34-7.05 144.64-7.6 145.12-8.63 145.59-9.65 145.69-9.88 145.79-10.1 146.04-10.1L146.04-10.1Q146.54-10.15 146.54-9.75L146.54-9.75Q146.54-9.6 146.44-9.4L146.44-9.4 146.14-8.7Q145.84-8 145.69-7.7 145.54-7.4 145.17-6.63 144.79-5.85 144.52-5.4 144.24-4.95 143.77-4.2 143.29-3.45 142.92-3 142.54-2.55 141.99-2 141.44-1.45 140.94-1.15L140.94-1.15Q139.69-0.4 138.59-0.4L138.59-0.4Q136.54-0.4 135.39-1.7L135.39-1.7Q133.09 0 131.14 0L131.14 0Q127.49 0 127.49-4.6L127.49-4.6Q127.49-6.7 128.59-9.1L128.59-9.1Q130.09-12.6 132.82-15.05 135.54-17.5 137.99-17.5ZM138.54-15.95L138.54-15.95Q137.19-15.95 135.34-14.15 133.49-12.35 132.04-9.25L132.04-9.25Q130.29-5.65 130.29-3.35 130.29-1.05 132.04-1.05L132.04-1.05Q133.29-1.05 134.84-2.4L134.84-2.4Q134.04-3.55 134.04-4.85L134.04-4.85Q134.14-7 135.79-7L135.79-7Q136.44-7 136.87-6.55 137.29-6.1 137.29-5.73 137.29-5.35 137.19-4.95L137.19-4.95Q138.04-6.2 139.14-8.5L139.14-8.5Q140.39-11.05 140.39-13.5 140.39-15.95 138.54-15.95ZM156.19-2.9L156.19-2.9Q156.19-1.3 157.49-1.3L157.49-1.3Q159.84-1.3 163.74-9.15L163.74-9.15Q163.89-9.45 164.01-9.75 164.14-10.05 164.41-10.15 164.69-10.25 164.79-10.03 164.89-9.8 164.69-9.3L164.69-9.3Q160.69 0 156.59 0L156.59 0Q155.24 0 154.44-1.2 153.64-2.4 153.64-3.58 153.64-4.75 153.89-5.75L153.89-5.75Q150.99-0.95 148.89-0.3L148.89-0.3Q148.29-0.05 147.71-0.05 147.14-0.05 146.59-0.2L146.59-0.2Q144.14-0.85 144.14-4.1L144.14-4.1Q144.14-6.3 145.26-8.97 146.39-11.65 148.44-14.1 150.49-16.55 153.39-17.4L153.39-17.4Q154.44-17.75 155.86-17.75 157.29-17.75 159.04-16.85L159.04-16.85Q162.44-23.25 164.84-28.7L164.84-28.7Q165.54-30.35 166.21-30.83 166.89-31.3 167.46-31.3 168.04-31.3 168.16-31.3 168.29-31.3 169.11-31.18 169.94-31.05 170.39-31.1L170.39-31.1Q169.24-30.05 164.29-20.9L164.29-20.9Q157.99-9.2 156.69-5.3L156.69-5.3Q156.19-3.85 156.19-2.9ZM158.64-16.05L158.64-16.05Q157.99-16.7 156.81-16.7 155.64-16.7 153.54-14.95L153.54-14.95Q150.19-12.15 147.99-8.05L147.99-8.05Q146.54-5.35 146.54-3.6L146.54-3.6Q146.54-2.8 146.86-2.15 147.19-1.5 147.89-1.5L147.89-1.5Q149.59-1.5 152.09-5 154.59-8.5 158.64-16.05ZM173.09-17.5L173.09-17.5Q176.74-17.5 176.74-12.9L176.74-12.9Q176.74-10.8 175.64-8.4L175.64-8.4Q174.24-5.15 171.44-2.5L171.44-2.5Q172.09-1.25 173.79-1.25L173.79-1.25Q175.14-1.25 176.34-2.6L176.34-2.6Q177.84-4.15 178.49-5.33 179.14-6.5 179.44-7.05 179.74-7.6 180.21-8.63 180.69-9.65 180.79-9.88 180.89-10.1 181.14-10.1L181.14-10.1Q181.64-10.15 181.64-9.75L181.64-9.75Q181.64-9.6 181.54-9.4L181.54-9.4 181.24-8.7Q180.94-8 180.79-7.7 180.64-7.4 180.26-6.63 179.89-5.85 179.61-5.4 179.34-4.95 178.86-4.2 178.39-3.45 178.01-3 177.64-2.55 177.09-2 176.54-1.45 176.04-1.15L176.04-1.15Q174.79-0.4 173.69-0.4L173.69-0.4Q171.64-0.4 170.49-1.7L170.49-1.7Q168.19 0 166.24 0L166.24 0Q162.59 0 162.59-4.6L162.59-4.6Q162.59-6.7 163.69-9.1L163.69-9.1Q165.19-12.6 167.91-15.05 170.64-17.5 173.09-17.5ZM173.64-15.95L173.64-15.95Q172.29-15.95 170.44-14.15 168.59-12.35 167.14-9.25L167.14-9.25Q165.39-5.65 165.39-3.35 165.39-1.05 167.14-1.05L167.14-1.05Q168.39-1.05 169.94-2.4L169.94-2.4Q169.14-3.55 169.14-4.85L169.14-4.85Q169.24-7 170.89-7L170.89-7Q171.54-7 171.96-6.55 172.39-6.1 172.39-5.73 172.39-5.35 172.29-4.95L172.29-4.95Q173.14-6.2 174.24-8.5L174.24-8.5Q175.49-11.05 175.49-13.5 175.49-15.95 173.64-15.95Z" opacity="1" transform="matrix(1,0,0,1,0,0)" fill="#7a26c1" class="wordmark-text-0" data-fill-palette-color="primary" id="text-0"></path></svg></g></svg></g><g transform="matrix(1,0,0,1,0,113.16585570904246)"><svg viewBox="0 0 395.52 56.57944885928393" height="56.57944885928393" width="395.52"><g transform="matrix(1,0,0,1,0,0)"><svg width="395.52" viewBox="0.25 -37.75 270.53 38.7" height="56.57944885928393" data-palette-color="#6936f5"><path d="M8.25 0.3Q7.75 0.3 7.5-0.08 7.25-0.45 7.25-1L7.25-1 7.25-5.45 7.25-9.9 7.15-17.9Q7-23.25 7-25.9L7-25.9 7.05-27.35 7.05-30.6Q7.05-36 6.95-36L6.95-36 1.3-36Q0.9-36 0.58-36.2 0.25-36.4 0.25-36.75L0.25-36.75Q0.25-37.15 0.4-37.3 0.55-37.45 1.2-37.55L1.2-37.55Q1.9-37.7 3.2-37.7L3.2-37.7 8.2-37.7 13.7-37.75Q14.3-37.75 14.53-37.55 14.75-37.35 14.75-36.9L14.75-36.9Q14.75-36.15 13.8-36.15L13.8-36.15 11.55-36.15 9.35-36.15 8.9-36.1 8.95-33.2 8.95-29.3 8.95-9 8.95-4.85 9-1.15 9-1.05Q9-0.65 8.95-0.38 8.9-0.1 8.75 0.05L8.75 0.05Q8.6 0.3 8.25 0.3L8.25 0.3ZM34.72 0.45Q33.97 0.45 33.77 0.28 33.57 0.1 33.47-0.65L33.47-0.65Q33.02-4.3 32.92-5.2L32.92-5.2 32.67-7.2Q31.57-7.45 30.17-7.45L30.17-7.45 28.37-7.55Q27.17-7.7 26.62-7.7L26.62-7.7Q26.32-7.7 26.27-7.45L26.27-7.45Q26.27-7.3 26.22-7.3L26.22-7.3 26.12-6.3Q26.07-5.4 25.57-2.7L25.57-2.7Q25.32-1.35 24.97-0.6L24.97-0.6Q24.57 0.25 24.22 0.25L24.22 0.25Q23.92 0.25 23.57-0.03 23.22-0.3 23.22-0.6L23.22-0.6 23.27-0.75 23.32-0.9Q24.22-4.45 24.82-7.95L24.82-7.95 25.42-11.05 26.02-14.85Q26.02-14.85 26.57-18.15L26.57-18.15Q26.82-19.5 27.47-22.5L27.47-22.5Q28.17-25.9 28.32-27.15L28.32-27.15Q28.37-27.3 28.52-29L28.52-29Q28.72-30.9 28.87-31.8L28.87-31.8Q29.02-33.1 29.17-33.3L29.17-33.3 29.52-33.3Q29.67-33.25 29.87-33.25L29.87-33.25Q30.47-33.25 30.77-33.55L30.77-33.55Q31.12-33.55 31.39-33.33 31.67-33.1 31.67-32.8L31.67-32.8Q31.67-30.4 32.02-27.3L32.02-27.3Q32.22-25.7 32.32-24.65L32.32-24.65Q32.87-18.2 35.12-0.45L35.12-0.45 35.12-0.3Q35.12 0.2 34.72 0.45L34.72 0.45ZM31.92-8.55L32.42-8.55Q31.92-15.75 30.52-29.8L30.52-29.8 27.82-16.45Q26.67-10.7 26.67-9.2L26.67-9.2Q26.67-8.95 28.57-8.75 30.47-8.55 31.92-8.55L31.92-8.55ZM48.39 0.6Q47.84 0.5 47.34 0.18 46.84-0.15 46.79-0.6L46.79-0.6 47.04-1Q47.24-1 47.94-0.85L47.94-0.85Q48.49-0.65 48.84-0.65L48.84-0.65Q49.94-0.65 50.79-1.53 51.64-2.4 52.09-3.8L52.09-3.8Q52.79-6.4 52.79-8.7L52.79-8.7Q52.79-12.15 50.69-16.1L50.69-16.1Q49.39-18.4 48.69-19.75 47.99-21.1 47.44-22.85L47.44-22.85Q46.79-24.9 46.79-26.8L46.79-26.8Q46.79-28.6 47.69-31.05L47.69-31.05Q48.14-32.2 48.96-32.93 49.79-33.65 50.74-33.65L50.74-33.65Q51.39-33.65 52.01-33.2 52.64-32.75 52.64-32.25L52.64-32.25Q52.64-31.85 51.99-31.85L51.99-31.85Q51.79-31.85 51.49-32L51.49-32Q51.19-32.15 50.94-32.15L50.94-32.15Q50.19-32.15 49.59-31.55 48.99-30.95 48.69-30L48.69-30Q48.09-28.15 48.09-26.6L48.09-26.6Q48.09-25.65 48.34-24.65L48.34-24.65Q48.39-24.35 48.44-24.15 48.49-23.95 48.49-23.85L48.49-23.85 48.79-22.85 49.04-21.95 49.44-21.05Q49.59-20.7 49.76-20.43 49.94-20.15 50.09-19.9L50.09-19.9 50.69-18.85Q50.89-18.55 51.54-17.43 52.19-16.3 52.74-15.05L52.74-15.05Q53.24-14 53.49-13.08 53.74-12.15 53.94-10.85L53.94-10.85Q54.09-9.6 54.09-8.1L54.09-8.1Q54.09-5.7 53.44-3.6L53.44-3.6Q52.54-1.1 50.84-0.1L50.84-0.1Q49.89 0.5 48.64 0.5L48.64 0.5 48.39 0.6ZM52.34-32L52.39-32Q52.39-32.05 52.34-32.05L52.34-32.05 52.34-32ZM78.41 0.9Q77.21 0.9 75.56-3.6L75.56-3.6Q74.01-7.75 72.86-12.6 71.71-17.45 71.61-19.4L71.61-19.4 71.46-19.6 70.71-18Q70.16-16.95 69.88-16.28 69.61-15.6 69.36-14.6L69.36-14.6Q69.06-13.65 69.06-12.65L69.06-12.65Q69.06-11.65 68.96-10.85L68.96-10.85 68.86-9.05 68.86-2.65Q68.86-2.2 69.01-1.2L69.01-1.2Q69.16-0.3 69.16 0.2L69.16 0.2Q69.16 0.45 68.91 0.63 68.66 0.8 68.36 0.8L68.36 0.8Q67.71 0.8 67.48 0.6 67.26 0.4 67.26-0.25L67.26-0.25 67.26-9.65Q67.26-10.45 67.51-12.8L67.51-12.8Q67.76-15.15 67.76-15.95L67.76-15.95Q67.76-18.05 68.01-20.8L68.01-20.8Q68.21-23.6 68.21-25.6L68.21-25.6 68.21-32.55Q68.51-33.1 69.16-33.1L69.16-33.1Q69.56-33.1 69.83-32.83 70.11-32.55 70.11-32.15L70.11-32.15Q69.71-31.25 69.71-29.75L69.71-29.75 69.61-24.5Q69.51-22.1 69.51-19.2L69.51-19.2Q70.01-19.35 73.41-26.1L73.41-26.1Q76.81-32.8 77.16-32.8L77.16-32.8Q78.46-32.8 78.46-31.95L78.46-31.95Q75.26-27.2 73.16-22.7L73.16-22.7 73.11-21.1Q73.06-20.4 73.06-19.5L73.06-19.5Q73.06-17.3 74.76-11.25 76.46-5.2 77.66-2.85L77.66-2.85Q78.21-2.1 78.31-2L78.31-2Q78.81-1.3 79.03-0.83 79.26-0.35 79.26 0.15L79.26 0.15Q79.26 0.5 79.01 0.7 78.76 0.9 78.41 0.9L78.41 0.9ZM111-0.3L110.45-0.7 110.4-2.55Q110.35-3.35 110.35-4.35L110.35-4.35Q110.35-4.85 110.4-5.2L110.4-5.2 110.45-6.1Q110.45-6.6 110.25-7.3L110.25-7.3Q110.25-10.65 109.75-19.75L109.75-19.75Q109.25-28.55 109.2-31.7L109.2-31.7Q106.1-31.7 105.05-31.85L105.05-31.85Q104.05-32.1 104.05-32.65L104.05-32.65Q104.3-33.2 105-33.2L105-33.2Q106.5-33.2 109.35-33L109.35-33Q111.95-32.75 113.7-32.75L113.7-32.75 114.75-32.75 115.8-32.8Q116.7-32.8 116.7-32.15L116.7-32.15Q116.7-31.85 116.37-31.68 116.05-31.5 115.6-31.5L115.6-31.5Q114.6-31.5 113.5-31.6L113.5-31.6 111.35-31.7Q111.15-31.7 111.15-31.55L111.15-31.55Q111.1-31.4 111.1-30.6L111.1-30.6Q111.1-25.75 111.7-15.9L111.7-15.9Q112.25-5.7 112.25-1.25L112.25-1.25Q112.25-0.9 111.82-0.6 111.4-0.3 111-0.3L111-0.3ZM134.52 0.95Q128.67 0.95 128.67-17.45L128.67-17.45 128.67-19.2Q128.67-33.15 132.27-33.15L132.27-33.15Q132.52-33.15 132.97-33L132.97-33Q134.57-32.45 136.12-32.3L136.12-32.3Q137.07-32.1 138.02-30.35L138.02-30.35Q139.07-28.55 139.59-25.6 140.12-22.65 140.12-19.55L140.12-19.55 140.02-19.3Q140.02-17.65 140.07-16.35L140.07-16.35 140.12-13.35Q140.12-10.8 139.92-8.75L139.92-8.75Q139.62-5.65 138.92-3.4L138.92-3.4Q138.47-2.05 137.89-1.15 137.32-0.25 136.47 0.35L136.47 0.35Q135.67 0.95 134.52 0.95L134.52 0.95ZM134.32-0.5Q136.27-0.5 137.22-3.25L137.22-3.25Q138.17-6.05 138.37-8.95L138.37-8.95Q138.57-11.95 138.57-13.75L138.57-13.75Q138.57-15.75 138.27-19.65L138.27-19.65Q138.02-24 138.02-25.55L138.02-25.55 137.82-25.95 137.92-26.2Q137.92-28.4 136.69-30 135.47-31.6 133.72-31.6L133.72-31.6Q131.42-31.6 130.97-29.4L130.97-29.4Q130.87-28.65 130.77-27.25L130.77-27.25Q130.77-23.55 130.47-22.2L130.47-22.2Q130.47-21.45 130.32-19.85L130.32-19.85 130.22-17.5Q130.22-16.4 130.27-15.55L130.27-15.55 130.32-13.55Q130.32-11.2 130.72-8.15L130.72-8.15Q131.02-5.9 131.42-4.35 131.82-2.8 132.57-1.7L132.57-1.7Q133.32-0.5 134.32-0.5L134.32-0.5ZM172.01 0.1Q171.41 0.1 170.81-0.2 170.21-0.5 170.21-0.9L170.21-0.9Q170.21-1.2 170.61-1.9L170.61-1.9Q171.01-2.55 170.96-2.9L170.96-2.9 170.81-7.3 170.46-20.95 170.36-27Q170.31-32.55 170.11-33.95L170.11-33.95Q170.01-34.5 169.71-35.2L169.71-35.2Q169.36-36.15 169.36-36.55L169.36-36.55Q169.36-37.75 173.16-37.75L173.16-37.75 173.41-37.75Q175.96-37.75 177.81-36L177.81-36Q179.26-34.65 180.41-31.75L180.41-31.75Q181.21-29.45 181.61-26.6L181.61-26.6Q181.81-25.1 181.96-22L181.96-22 181.96-20.45Q181.96-17.35 181.13-13.73 180.31-10.1 178.81-6.95L178.81-6.95Q177.91-4.95 176.48-3.35 175.06-1.75 173.76-0.83 172.46 0.1 172.01 0.1L172.01 0.1ZM172.51-2.45L172.76-2.45Q174.61-3.4 176.06-5.23 177.51-7.05 178.36-9.25L178.36-9.25Q179.11-11.1 179.61-13.48 180.11-15.85 180.31-17.9L180.31-17.9Q180.46-19.7 180.46-21.35L180.46-21.35Q180.46-35.95 172.41-35.95L172.41-35.95Q171.36-35.95 171.36-35.4L171.36-35.4Q171.36-33.65 171.56-31.25L171.56-31.25Q171.76-28.8 171.76-27.1L171.76-27.1Q171.76-24.35 172.16-17.55L172.16-17.55Q172.51-11.65 172.51-8.05L172.51-8.05 172.51-2.45ZM197.12 0.65Q196.22 0.65 196.12-0.4L196.12-0.4 196.12-1.05Q196.17-1.3 196.17-1.65L196.17-1.65 195.97-1.85Q196.37-2.9 196.37-3.9L196.37-3.9Q196.37-5.05 196.22-7.2L196.22-7.2 196.12-10.5Q196.12-13 196.27-18L196.27-18Q196.47-22.45 196.47-25.55L196.47-25.55 196.37-28.55Q196.27-29.9 196.27-31.55L196.27-31.55Q196.27-32.3 196.62-32.63 196.97-32.95 197.72-32.95L197.72-32.95Q198.22-32.95 198.52-32.65L198.52-32.65Q198.62-32.6 199.97-32.45L199.97-32.45Q201.22-32.3 202.12-32L202.12-32Q203.07-31.7 203.07-31.25L203.07-31.25Q203.07-30.75 202.12-30.25L202.12-30.25Q199.27-31.2 198.07-31.2L198.07-31.2 197.82-30.9Q197.87-30.45 197.87-28.75L197.87-28.75Q197.87-26.6 197.77-24.9L197.77-24.9Q197.72-23.15 197.72-21L197.72-21Q197.72-19.6 198.42-19.6L198.42-19.6 199.22-19.65Q199.62-19.7 200.07-19.7L200.07-19.7Q202.02-19.7 202.02-18.8L202.02-18.8Q202.02-18.25 201.77-17.88 201.52-17.5 201.02-17.5L201.02-17.5Q200.27-17.5 199.87-17.9L199.87-17.9 198.27-18.15 198.02-18.15 197.77-17.9 197.77-17.75Q197.87-16.9 197.87-13.8L197.87-13.8Q197.87-11.85 197.82-10.25L197.82-10.25 197.77-6.7Q197.77-4.75 197.92-2.7L197.92-2.7Q197.97-1.55 198.42-1.18 198.87-0.8 200.07-0.8L200.07-0.8 200.97-0.85Q201.42-0.9 201.97-0.9L201.97-0.9Q203.42-0.9 203.42-0.25L203.42-0.25Q203.42 0.65 201.22 0.65L201.22 0.65 197.12 0.65ZM226.14 0.45Q225.39 0.45 225.19 0.28 224.99 0.1 224.89-0.65L224.89-0.65Q224.44-4.3 224.34-5.2L224.34-5.2 224.09-7.2Q222.99-7.45 221.59-7.45L221.59-7.45 219.79-7.55Q218.59-7.7 218.04-7.7L218.04-7.7Q217.74-7.7 217.69-7.45L217.69-7.45Q217.69-7.3 217.64-7.3L217.64-7.3 217.54-6.3Q217.49-5.4 216.99-2.7L216.99-2.7Q216.74-1.35 216.39-0.6L216.39-0.6Q215.99 0.25 215.64 0.25L215.64 0.25Q215.34 0.25 214.99-0.03 214.64-0.3 214.64-0.6L214.64-0.6 214.69-0.75 214.74-0.9Q215.64-4.45 216.24-7.95L216.24-7.95 216.84-11.05 217.44-14.85Q217.44-14.85 217.99-18.15L217.99-18.15Q218.24-19.5 218.89-22.5L218.89-22.5Q219.59-25.9 219.74-27.15L219.74-27.15Q219.79-27.3 219.94-29L219.94-29Q220.14-30.9 220.29-31.8L220.29-31.8Q220.44-33.1 220.59-33.3L220.59-33.3 220.94-33.3Q221.09-33.25 221.29-33.25L221.29-33.25Q221.89-33.25 222.19-33.55L222.19-33.55Q222.54-33.55 222.82-33.33 223.09-33.1 223.09-32.8L223.09-32.8Q223.09-30.4 223.44-27.3L223.44-27.3Q223.64-25.7 223.74-24.65L223.74-24.65Q224.29-18.2 226.54-0.45L226.54-0.45 226.54-0.3Q226.54 0.2 226.14 0.45L226.14 0.45ZM223.34-8.55L223.84-8.55Q223.34-15.75 221.94-29.8L221.94-29.8 219.24-16.45Q218.09-10.7 218.09-9.2L218.09-9.2Q218.09-8.95 219.99-8.75 221.89-8.55 223.34-8.55L223.34-8.55ZM243.11-0.3L242.56-0.7 242.51-2.55Q242.46-3.35 242.46-4.35L242.46-4.35Q242.46-4.85 242.51-5.2L242.51-5.2 242.56-6.1Q242.56-6.6 242.36-7.3L242.36-7.3Q242.36-10.65 241.86-19.75L241.86-19.75Q241.36-28.55 241.31-31.7L241.31-31.7Q238.21-31.7 237.16-31.85L237.16-31.85Q236.16-32.1 236.16-32.65L236.16-32.65Q236.41-33.2 237.11-33.2L237.11-33.2Q238.61-33.2 241.46-33L241.46-33Q244.06-32.75 245.81-32.75L245.81-32.75 246.86-32.75 247.91-32.8Q248.81-32.8 248.81-32.15L248.81-32.15Q248.81-31.85 248.49-31.68 248.16-31.5 247.71-31.5L247.71-31.5Q246.71-31.5 245.61-31.6L245.61-31.6 243.46-31.7Q243.26-31.7 243.26-31.55L243.26-31.55Q243.21-31.4 243.21-30.6L243.21-30.6Q243.21-25.75 243.81-15.9L243.81-15.9Q244.36-5.7 244.36-1.25L244.36-1.25Q244.36-0.9 243.94-0.6 243.51-0.3 243.11-0.3L243.11-0.3ZM270.43 0.55Q270.43 0.05 268.93 0.05L268.93 0.05Q268.68-9.2 268.68-13.35L268.68-13.35 268.53-13.55 268.73-14Q268.73-14.9 268.53-15.85L268.53-15.85 267.78-16.05Q267.33-15.9 266.78-15.9L266.78-15.9Q266.38-15.9 265.13-16.15L265.13-16.15Q264.28-16.4 263.58-16.4L263.58-16.4 263.03-16.2Q263.03-14.45 262.98-13.05L262.98-13.05Q262.93-11.65 262.93-9.9L262.93-9.9 263.03-9.7Q263.03-8.3 263.18-5.5L263.18-5.5Q263.33-2.75 263.33-1.35L263.33-1.35Q263.33-0.8 263.13-0.43 262.93-0.05 262.53-0.05L262.53-0.05Q261.43-0.05 261.43-3.05L261.43-3.05Q261.43-5.6 261.48-7.65L261.48-7.65 261.53-12.2Q261.53-16.75 261.38-17.1L261.38-17.1Q261.63-17.6 261.63-20.4L261.63-20.4Q261.63-22.8 261.43-26.25L261.43-26.25 261.33-28.2 261.23-32.1Q261.23-32.45 261.48-32.75 261.73-33.05 262.08-33.05L262.08-33.05Q263.08-33.05 263.08-30.15L263.08-30.15Q263.08-26.75 263.03-24L263.03-24Q262.93-21.25 262.93-17.95L262.93-17.95Q262.93-17.35 266.73-17.35L266.73-17.35 266.93-17.35Q267.88-17.35 268.31-17.73 268.73-18.1 268.73-19L268.73-19Q268.73-21.65 268.38-25.9L268.38-25.9Q268.08-30.5 268.08-32.8L268.08-32.8Q268.08-33.1 268.33-33.33 268.58-33.55 268.93-33.55L268.93-33.55 269.38-33.4Q269.73-33.35 269.83-33.25L269.83-33.25Q269.83-29.35 270.13-21.6L270.13-21.6Q270.43-13.8 270.43-9.9L270.43-9.9Q270.43-4 270.78 0L270.78 0 270.43 0.55ZM267.28-17.95L267.28-18.05 267.38-17.95 267.28-17.95Z" opacity="1" transform="matrix(1,0,0,1,0,0)" fill="#6936f5" class="slogan-text-1" data-fill-palette-color="secondary" id="text-1"></path></svg></g></svg></g></svg></g></svg></g><g transform="matrix(1,0,0,1,88.16787590173188,0)"><svg viewBox="0 0 219.18424819653623 219.18424819653623" height="219.18424819653623" width="219.18424819653623"><g><svg></svg></g><g id="icon-0"><svg viewBox="0 0 219.18424819653623 219.18424819653623" height="219.18424819653623" width="219.18424819653623"><g><path d="M0 109.592c0-60.526 49.066-109.592 109.592-109.592 60.526 0 109.592 49.066 109.592 109.592 0 60.526-49.066 109.592-109.592 109.592-60.526 0-109.592-49.066-109.592-109.592zM109.592 210.928c55.966 0 101.336-45.37 101.336-101.336 0-55.966-45.37-101.336-101.336-101.336-55.966 0-101.336 45.37-101.336 101.336 0 55.966 45.37 101.336 101.336 101.336z" data-fill-palette-color="accent" fill="#6936f5" stroke="transparent"></path></g><g transform="matrix(1,0,0,1,53.648547866279074,55.62572201030638)"><svg viewBox="0 0 111.88715246397808 107.93280417592347" height="107.93280417592347" width="111.88715246397808"><g><svg xmlns="http://www.w3.org/2000/svg" data-name="list 3 tick copy" viewBox="8.150088894702716 8.32173908991432 82.19737635098711 79.29233276646339" x="0" y="0" height="107.93280417592347" width="111.88715246397808" class="icon-cg-0" data-fill-palette-color="accent" id="cg-0"><path d="M28 9c-1 1.46-2 3-3 4.46-1.49-1.16-4.89-0.63-6.54-0.48a60.43 60.43 0 0 0-9.1 1.78 0.88 0.88 0 0 0-0.39 1.48A61 61 0 0 0 8.45 30a0.93 0.93 0 0 0 0.84 1.59q0.91-0.23 1.82-0.4c0.55-0.11 1.09-0.19 1.64-0.27 0.05 0 0.11 0.18 0.16 0.17a25.85 25.85 0 0 1 3.6-0.12h0a0.67 0.67 0 0 1 0.42 0.26 1.5 1.5 0 0 0 2.38-0.53c0.76 0 1.53 0.05 2.3 0.14h0.31c0.79 0.1 1.58 0.2 2.37 0.35a0.91 0.91 0 0 0 1-0.43c0.7 0.08 1.44-0.6 0.92-1.31-0.95-1.29-0.48-3.86-0.48-5.36V19.06c0-0.18 0-0.39 0-0.61s0-0.4 0.05-0.62v-0.06Q28 14 30.55 10.48C31.68 8.91 29.08 7.41 28 9ZM22.2 29.07L21.58 29l-1.25-0.12-0.23 0q1.73-3.95 3.78-7.71v4.26a13.17 13.17 0 0 0 0.2 3.93C23.45 29.24 22.83 29.15 22.2 29.07Zm-9.1 0l-0.78 0.1c-0.69 0.1-1.38 0.22-2.07 0.36-0.07-1-0.12-2.05-0.14-3.07 0-0.13 0-0.26 0-0.39 0-1 0-1.92 0-2.88 0-0.19 0-0.38 0-0.57s0-0.29 0-0.44c1.71 2.15 3.15 4.51 4.85 6.67l-0.6 0.06Zm5.33-14.31a13.64 13.64 0 0 1 4.17-0.06 3 3 0 0 1 0.49 0.17l0.15 0.07 0.2 0.13a1.2 1.2 0 0 1 0.3 0.32h0a106.16 106.16 0 0 0-6.19 11.86c-2.25-2.73-4-5.85-6.36-8.48a1.38 1.38 0 0 0-0.7-0.43c0.08-0.7 0.15-1.4 0.26-2.1A51.5 51.5 0 0 1 18.43 14.78Z" fill="#6936f5" data-fill-palette-color="accent"></path><path d="M28 37c-1 1.46-2 2.94-3 4.44h0c-1.48-1.17-4.9-0.64-6.55-0.48a60.44 60.44 0 0 0-9.1 1.78 0.88 0.88 0 0 0-0.39 1.48A61 61 0 0 0 8.45 58a0.93 0.93 0 0 0 0.84 1.59q0.91-0.22 1.81-0.4c0.55-0.11 1.1-0.2 1.65-0.27 0 0 0.09 0.19 0.14 0.19a25.71 25.71 0 0 1 3.59-0.1h0a0.71 0.71 0 0 1 0.45 0.27 1.5 1.5 0 0 0 2.39-0.56c0.76 0 1.53 0.05 2.29 0.14 0.1 0 0.2 0 0.3 0 0.79 0.1 1.57 0.2 2.36 0.35a0.91 0.91 0 0 0 1-0.43c0.7 0.08 1.44-0.6 0.92-1.31-0.95-1.29-0.48-3.86-0.48-5.36V47c0-0.18 0-0.38 0-0.6s0-0.43 0.05-0.66Q28 42 30.55 38.48C31.68 36.91 29.08 35.41 28 37ZM22.21 57L21.58 57l-1.23-0.12-0.22 0q1.72-3.93 3.77-7.69v4.23a13.17 13.17 0 0 0 0.2 3.93C23.45 57.21 22.83 57.12 22.21 57Zm-9.1 0l-0.8 0.11c-0.69 0.1-1.37 0.22-2.06 0.36-0.07-1-0.12-2.06-0.14-3.08 0-0.13 0-0.25 0-0.38 0-1 0-1.92 0-2.88 0-0.19 0-0.37 0-0.56s0-0.28 0-0.42c1.71 2.15 3.13 4.49 4.83 6.64l-0.62 0.07Zm5.33-14.3a13.64 13.64 0 0 1 4.17-0.06 3 3 0 0 1 0.49 0.17l0.15 0.07 0.21 0.14 0.13 0.1a1.09 1.09 0 0 1 0.17 0.22 106.17 106.17 0 0 0-6.2 11.88c-2.25-2.73-4-5.85-6.36-8.48a1.38 1.38 0 0 0-0.7-0.43c0.08-0.71 0.16-1.42 0.26-2.13A51.5 51.5 0 0 1 18.43 42.75Z" fill="#6936f5" data-fill-palette-color="accent"></path><path d="M66.13 24c7.54 1.26 14.95 2.29 22.37-0.12 1.11-0.36 0.64-2.12-0.48-1.76-9.26 3-18.42 0.37-27.73-0.9a87.81 87.81 0 0 0-25.09 0.31c-1.16 0.17-0.67 1.93 0.48 1.76C46 21.76 55.87 22.3 66.13 24Z" fill="#6936f5" data-fill-palette-color="accent"></path><path d="M61.5 48a87.81 87.81 0 0 0-25.09 0.31c-1.16 0.17-0.67 1.93 0.48 1.76 10.31-1.56 20.19-1 30.45 0.7 7.54 1.26 14.95 2.29 22.37-0.12 1.11-0.36 0.64-2.12-0.48-1.76C80 51.9 70.81 49.27 61.5 48Z" fill="#6936f5" data-fill-palette-color="accent"></path><path d="M89.23 75.65c-9.26 3-18.42 0.37-27.73-0.9a87.81 87.81 0 0 0-25.09 0.31c-1.16 0.17-0.67 1.93 0.48 1.76 10.31-1.56 20.19-1 30.45 0.7 7.54 1.26 14.95 2.29 22.37-0.12C90.83 77 90.35 75.28 89.23 75.65Z" fill="#6936f5" data-fill-palette-color="accent"></path><path d="M28 65c-1 1.45-2 2.92-3 4.42h0c-1.48-1.18-4.91-0.65-6.56-0.49a60.43 60.43 0 0 0-9.1 1.78 0.88 0.88 0 0 0-0.39 1.48A61 61 0 0 0 8.45 86a0.93 0.93 0 0 0 0.84 1.59q0.91-0.22 1.81-0.4c0.55-0.11 1.1-0.2 1.65-0.28l0.13 0a34.79 34.79 0 0 1 3.58-0.32c0.16 0.17 0.31 0.34 0.47 0.51a1.49 1.49 0 0 0 2.41-0.48c0.76 0 1.52 0.1 2.29 0.19l0.3 0c0.79 0.09 1.57 0.21 2.36 0.37a0.91 0.91 0 0 0 1-0.42c0.7 0.08 1.44-0.6 0.92-1.3-0.95-1.29-0.48-3.86-0.48-5.36V75c0-0.18 0.11-0.38 0.13-0.59s0.15-0.4 0.15-0.62h0c1-2.49 3-4.92 4.66-7.3C31.78 64.91 29.08 63.41 28 65ZM22.21 85l-0.64-0.07-1.22-0.12-0.22 0q1.72-3.92 3.75-7.66v4.2a13.17 13.17 0 0 0 0.2 3.93C23.45 85.18 22.83 85.09 22.21 85Zm-9.1 0l-0.82 0.11c-0.68 0.1-1.36 0.22-2 0.36-0.08-1.17-0.13-2.34-0.15-3.51 0-0.35 0-0.71 0-1.06 0-0.82 0-1.63 0-2.45 0-0.09 0-0.18 0-0.27 1.7 2.14 3.12 4.47 4.8 6.62l-0.64 0.07Zm5.32-14.3a13.64 13.64 0 0 1 4.17-0.06 3 3 0 0 1 0.5 0.17l0.14 0.07 0.22 0.14s0.2 0.06 0.24 0.1 0.3 0.15 0.3 0.23h0c-3 3.83-4.5 7.79-6.32 11.89-2.25-2.73-4-5.85-6.42-8.48a1.45 1.45 0 0 0-0.73-0.43c0.08-0.72 0.14-1.44 0.25-2.15A51.3 51.3 0 0 1 18.43 70.72Z" fill="#6936f5" data-fill-palette-color="accent"></path></svg></g></svg></g></svg></g></svg></g><g></g></svg></g><defs></defs></svg><rect width="226.2435024759894" height="247.2" fill="none" stroke="none" visibility="hidden"></rect></g></svg></g></svg>